<svg width="20" height="20" viewBox="0 0 20 20" fill="none" xmlns="http://www.w3.org/2000/svg">
<path d="M5.9893 0C3.1286 0 0.590402 2.0127 0.0206021 4.7812C-0.0907979 5.3222 0.260903 5.8574 0.801803 5.9688C1.3427 6.0801 1.878 5.7284 1.9893 5.1875C2.3687 3.3441 4.0824 2 5.9893 2C6.5416 2 6.9893 1.5523 6.9893 1C6.9893 0.4477 6.5416 0 5.9893 0ZM13.9893 0C13.437 0 12.9893 0.4477 12.9893 1C12.9893 1.5523 13.437 2 13.9893 2C15.8984 2 17.6436 3.3412 18.0206 5.1875C18.131 5.7286 18.6669 6.0792 19.2081 5.9688C19.7492 5.8583 20.0998 5.3224 19.9893 4.7812C19.4231 2.0083 16.8534 0 13.9893 0ZM9.9893 2C5.0187 2 0.989303 6.0294 0.989303 11C0.989303 13.1106 1.7415 15.0902 2.9581 16.625L1.3018 18.2812C0.911303 18.6718 0.911303 19.3282 1.3018 19.7188C1.6923 20.1093 2.3175 20.078 2.7081 19.6875L4.3643 18.0312C5.8991 19.2478 7.8787 20 9.9893 20C12.0999 20 14.0795 19.2166 15.6143 18L17.3018 19.7188C17.6923 20.1093 18.3175 20.078 18.7081 19.6875C19.0986 19.297 19.0673 18.6718 18.6768 18.2812L17.0206 16.5938C18.2191 15.1407 18.9893 13.1106 18.9893 11C18.9893 6.0294 14.9599 2 9.9893 2ZM9.9893 4C13.8553 4 16.9893 7.134 16.9893 11C16.9893 14.866 13.8553 18 9.9893 18C6.1233 18 2.9893 14.866 2.9893 11C2.9893 7.134 6.1233 4 9.9893 4ZM9.9893 6C9.437 6 8.9893 6.4477 8.9893 7V10H5.9893C5.437 10 4.9893 10.4477 4.9893 11C4.9893 11.5523 5.437 12 5.9893 12H9.9893C10.5416 12 10.9893 11.5523 10.9893 11V7C10.9893 6.4477 10.5416 6 9.9893 6Z" fill="#4C6AFF"/>
</svg>
