<svg xmlns="http://www.w3.org/2000/svg" width="38" height="38" viewBox="0 0 38 38" fill="none">
  <g clip-path="url(#clip0_6003_5210)">
    <path d="M19 38C29.4934 38 38 29.4934 38 19C38 8.50659 29.4934 0 19 0C8.50659 0 0 8.50659 0 19C0 29.4934 8.50659 38 19 38Z" fill="#FFE5EB"/>
    <path d="M17.3112 20.9887V10.564C17.3112 9.6309 18.0669 8.87512 19 8.87512C19.9332 8.87512 20.6889 9.6309 20.6889 10.564V20.9887C20.6889 21.9218 19.9332 22.6776 19 22.6776C18.0669 22.6776 17.3112 21.9218 17.3112 20.9887Z" fill="#FF8194"/>
    <path d="M17.3112 27.436V27.4107C17.3112 26.4776 18.0669 25.7218 19 25.7218C19.9332 25.7218 20.6889 26.4776 20.6889 27.4107V27.436C20.6889 28.3691 19.9332 29.1249 19 29.1249C18.0669 29.1249 17.3112 28.3691 17.3112 27.436Z" fill="#FF8194"/>
  </g>
  <defs>
    <clipPath id="clip0_6003_5210">
      <rect width="38" height="38" fill="white"/>
    </clipPath>
  </defs>
</svg>