<svg xmlns="http://www.w3.org/2000/svg" width="48" height="46" viewBox="0 0 48 46" fill="none">
<path fill-rule="evenodd" clip-rule="evenodd" d="M16.481 10.0424C17.8151 7.64856 20.4136 6.15614 23.2395 6.16073C26.1155 6.14001 28.768 7.64776 30.134 10.0797L41.0875 29.5626C42.387 31.8759 42.3244 34.6754 40.9227 36.933C39.5211 39.1905 36.987 40.5731 34.2513 40.5731H12.2278C9.48386 40.5737 6.94315 39.1833 5.54375 36.9154C4.14436 34.6474 4.09388 31.8383 5.41095 29.5253L16.481 10.0424ZM27.5122 11.4047C26.6697 9.89171 25.0253 8.95079 23.2395 8.96C21.48 8.97173 19.866 9.90085 19.0251 11.386L7.97454 30.8316C7.14916 32.2736 7.17907 34.0275 8.05316 35.4427C8.92725 36.8579 10.5151 37.7233 12.2278 37.7178H34.2513C35.9578 37.7078 37.5346 36.841 38.4086 35.4325C39.2825 34.024 39.3262 32.2789 38.5239 30.8316L27.5122 11.4047Z" fill="#FF8194"/>
<path d="M23.2395 28.5551C22.4351 28.5551 21.7829 29.1817 21.7829 29.9547C21.7829 30.7277 22.4351 31.3544 23.2395 31.3544C23.6274 31.3594 24.001 31.2136 24.2753 30.95C24.5496 30.6864 24.7014 30.3275 24.6961 29.9547C24.6961 29.5852 24.5421 29.2311 24.2683 28.9716C23.9946 28.7121 23.624 28.5688 23.2395 28.5738V28.5551Z" fill="#FF8194"/>
<path d="M23.2395 25.9984C22.4394 25.9884 21.7934 25.3676 21.7829 24.5988V18.8136C21.7829 18.0406 22.4351 17.414 23.2395 17.414C24.044 17.414 24.6961 18.0406 24.6961 18.8136V24.5988C24.6961 25.3718 24.044 25.9984 23.2395 25.9984Z" fill="#FF8194"/>
</svg>