<svg width="23" height="23" viewBox="0 0 23 23" fill="none" xmlns="http://www.w3.org/2000/svg">
<g filter="url(#filter0_i_236_4111)">
<path d="M13.1579 20.1253C12.9894 20.4158 12.7476 20.6569 12.4566 20.8245C12.1657 20.9921 11.8358 21.0803 11.5 21.0803C11.1642 21.0803 10.8343 20.9921 10.5434 20.8245C10.2524 20.6569 10.0106 20.4158 9.84208 20.1253M17.25 7.66699C17.25 6.142 16.6442 4.67946 15.5659 3.60113C14.4875 2.52279 13.025 1.91699 11.5 1.91699C9.97501 1.91699 8.51247 2.52279 7.43414 3.60113C6.3558 4.67946 5.75 6.142 5.75 7.66699C5.75 14.3753 2.875 16.292 2.875 16.292H20.125C20.125 16.292 17.25 14.3753 17.25 7.66699Z" stroke="#191F28" stroke-width="2" stroke-linecap="round" stroke-linejoin="round"/>
</g>
<defs>
<filter id="filter0_i_236_4111" x="0" y="0" width="23" height="27" filterUnits="userSpaceOnUse" color-interpolation-filters="sRGB">
<feFlood flood-opacity="0" result="BackgroundImageFix"/>
<feBlend mode="normal" in="SourceGraphic" in2="BackgroundImageFix" result="shape"/>
<feColorMatrix in="SourceAlpha" type="matrix" values="0 0 0 0 0 0 0 0 0 0 0 0 0 0 0 0 0 0 127 0" result="hardAlpha"/>
<feOffset dy="4"/>
<feGaussianBlur stdDeviation="2"/>
<feComposite in2="hardAlpha" operator="arithmetic" k2="-1" k3="1"/>
<feColorMatrix type="matrix" values="0 0 0 0 0 0 0 0 0 0 0 0 0 0 0 0 0 0 0.25 0"/>
<feBlend mode="normal" in2="shape" result="effect1_innerShadow_236_4111"/>
</filter>
</defs>
</svg>
