<svg xmlns="http://www.w3.org/2000/svg" width="38" height="38" viewBox="0 0 38 38" fill="none">
<path d="M18.9891 0C8.50142 0 0 8.5063 0 19C0 29.4937 8.50142 38 18.9891 38C28.6355 38 36.7325 30.7648 37.8605 21.2572C37.982 20.2141 37.2395 19.2432 36.197 19.1178C35.1564 18.9962 34.1842 19.7391 34.0626 20.7822C33.1606 28.3822 26.7063 34.2 18.9891 34.2C10.5997 34.2 3.79782 27.3942 3.79782 19C3.79782 10.6058 10.5997 3.8 18.9891 3.8C20.7418 3.8 22.4774 4.11729 24.0934 4.69109C25.0808 5.04069 26.1157 4.49159 26.467 3.50359C26.8164 2.51369 26.3265 1.41932 25.339 1.06782C23.3186 0.351522 21.1747 0 18.9891 0ZM36.0793 3.8C35.5931 3.8 35.0842 3.97101 34.714 4.33391L18.1574 20.6625C17.6693 21.1432 17.1775 21.0501 16.7939 20.4839L14.895 17.6928C14.314 16.8359 13.0949 16.587 12.2252 17.1589C11.3536 17.7308 11.1086 18.9145 11.6897 19.7714L13.5886 22.5625C15.2995 25.0876 18.6473 25.422 20.8291 23.275L37.4446 7.00718C38.1851 6.27758 38.1851 5.06351 37.4446 4.33391C37.0743 3.96911 36.5654 3.8 36.0793 3.8Z" fill="#4C6AFF"/>
</svg>