<svg xmlns="http://www.w3.org/2000/svg" width="28" height="28" viewBox="0 0 28 28" fill="none">
<path d="M6.22222 0C2.786 0 0 2.786 0 6.22222V21.7778C0 25.214 2.786 28 6.22222 28H21.7778C25.214 28 28 25.214 28 21.7778V6.22222C28 2.786 25.214 0 21.7778 0H6.22222ZM20.2222 4.66667C21.9411 4.66667 23.3333 6.05889 23.3333 7.77778C23.3333 9.49667 21.9411 10.8889 20.2222 10.8889C18.5033 10.8889 17.1111 9.49667 17.1111 7.77778C17.1111 6.05889 18.5033 4.66667 20.2222 4.66667ZM8.55556 12.4444C9.46089 12.446 10.836 13.8553 12.152 16.2851C12.6747 17.2464 13.1429 18.3058 13.5629 19.348C13.8149 19.9702 14.0094 20.4462 14.0965 20.7076C14.5211 21.9785 16.2447 22.1589 16.9167 21C16.9836 20.8849 17.1049 20.664 17.3056 20.3684C17.6416 19.8707 18.0242 19.3667 18.424 18.9093C19.4227 17.7645 20.3871 17.1111 21 17.1111C21.6207 17.1267 22.5789 17.7785 23.576 18.9093C23.9805 19.3682 24.3538 19.8707 24.6944 20.3684C24.8018 20.524 24.8173 20.5971 24.8889 20.7076V21.7778C24.8889 23.4967 23.4967 24.8889 21.7778 24.8889H6.22222C4.50333 24.8889 3.11111 23.4967 3.11111 21.7778V20.4649C3.20911 20.188 3.33979 19.8598 3.54823 19.348C3.9729 18.3058 4.43332 17.248 4.95909 16.2851C6.28598 13.8507 7.65178 12.4429 8.55556 12.4444Z" fill="#7F848D"/>
</svg>