<svg xmlns="http://www.w3.org/2000/svg" width="20" height="20" viewBox="0 0 20 20" fill="none">
  <circle cx="10" cy="10" r="10" fill="#4D5662"/>
  <path d="M5.63138 5C5.47167 5 5.30466 5.05372 5.18278 5.1755C4.93907 5.4197 4.93907 5.8294 5.18278 6.0736L9.10287 9.99641L5.18278 13.9192C4.93907 14.1634 4.93907 14.5731 5.18278 14.8173C5.42655 15.0609 5.8362 15.0609 6.07997 14.8173L10 10.8945L13.92 14.8173C14.1638 15.0609 14.5735 15.0609 14.8172 14.8173C15.0609 14.5731 15.0609 14.1634 14.8172 13.9192L10.8971 9.99641L14.8172 6.0736C15.0609 5.8294 15.0609 5.4197 14.8172 5.1755C14.6953 5.05372 14.5283 5 14.3686 5C14.2089 5 14.042 5.05372 13.92 5.1755L10 9.0983L6.07997 5.1755C5.95809 5.05372 5.79108 5 5.63138 5Z" fill="white"/>
</svg>