<svg xmlns="http://www.w3.org/2000/svg" width="20" height="20" viewBox="0 0 20 20" fill="none">
  <path d="M9.99911 1.67847C5.39677 1.67847 1.66577 5.40931 1.66577 10.0118C1.66577 14.6143 5.39677 18.3452 9.99911 18.3452C14.6014 18.3452 18.3324 14.6143 18.3324 10.0118C18.3324 5.40931 14.6014 1.67847 9.99911 1.67847ZM9.99911 3.34514C13.681 3.34514 16.6658 6.33014 16.6658 10.0118C16.6658 13.6935 13.681 16.6785 9.99911 16.6785C6.31719 16.6785 3.33244 13.6935 3.33244 10.0118C3.33244 6.33014 6.31719 3.34514 9.99911 3.34514ZM9.99911 5.84514C9.53886 5.84514 9.16577 6.21848 9.16577 6.67848C9.16577 7.13848 9.53886 7.51181 9.99911 7.51181C10.4594 7.51181 10.8324 7.13848 10.8324 6.67848C10.8324 6.21848 10.4594 5.84514 9.99911 5.84514ZM9.99911 8.34515C9.53886 8.34515 9.16577 8.71848 9.16577 9.17849V13.3452C9.16577 13.8052 9.53886 14.1785 9.99911 14.1785C10.4594 14.1785 10.8324 13.8052 10.8324 13.3452V9.17849C10.8324 8.71848 10.4594 8.34515 9.99911 8.34515Z" fill="#FF8194"/>
</svg>