<svg width="35" height="35" viewBox="0 0 35 35" fill="none" xmlns="http://www.w3.org/2000/svg">
<g clip-path="url(#clip0_6001_6545)">
<path d="M20.35 9.40621C23.2479 12.6587 20.3705 17.3124 16.1668 16.1771C15.5804 16.0203 15.0485 15.6896 14.6462 15.2361C11.7483 11.9837 14.6258 7.32994 18.8295 8.46524C19.4159 8.62207 19.9477 8.95278 20.35 9.40621Z" fill="#4C6AFF"/>
<path d="M17.3874 17.3909H17.6124C21.5434 17.3909 24.7345 20.582 24.7345 24.5129V25.2732C24.7345 26.0642 24.0936 26.7051 23.3026 26.7051H11.6973C10.9063 26.7051 10.2654 26.0642 10.2654 25.2732V24.5129C10.2654 20.582 13.4565 17.3909 17.3874 17.3909Z" fill="#4C6AFF"/>
<path d="M17.5 35C7.85165 35 0 27.1484 0 17.5C0 7.85165 7.85165 0 17.5 0C18.6864 0 19.8729 0.119326 21.0252 0.354568C21.765 0.504578 22.2389 1.22735 22.0889 1.96376C21.9389 2.70358 21.2161 3.17748 20.4797 3.02747C19.5047 2.82973 18.5023 2.72745 17.5 2.72745C9.35515 2.72745 2.72745 9.35515 2.72745 17.5C2.72745 25.6448 9.35515 32.2725 17.5 32.2725C25.6448 32.2725 32.2725 25.6448 32.2725 17.5C32.2725 15.7749 31.9793 14.0873 31.3998 12.4815C31.1441 11.7724 31.5123 10.9916 32.218 10.7359C32.9237 10.4802 33.7079 10.8484 33.9636 11.5542C34.6522 13.4566 35 15.4578 35 17.5C35 27.1484 27.1484 35 17.5 35Z" fill="#D8E2FF"/>
<path d="M31.6181 5.00827H28.6451V2.03194C28.6451 1.27848 28.0349 0.668213 27.2814 0.668213C26.528 0.668213 25.9177 1.27848 25.9177 2.03194V5.00827H22.9448C22.1913 5.00827 21.5811 5.61853 21.5811 6.37199C21.5811 7.12545 22.1913 7.73572 22.9448 7.73572H25.9177V10.7086C25.9177 11.4621 26.528 12.0724 27.2814 12.0724C28.0349 12.0724 28.6451 11.4621 28.6451 10.7086V7.73572H31.6181C32.3715 7.73572 32.9818 7.12545 32.9818 6.37199C32.9818 5.61853 32.3715 5.00827 31.6181 5.00827Z" fill="#4C6AFF"/>
</g>
<defs>
<clipPath id="clip0_6001_6545">
<rect width="35" height="35" fill="white"/>
</clipPath>
</defs>
</svg>
