<svg width="29" height="31" viewBox="0 0 29 31" fill="none" xmlns="http://www.w3.org/2000/svg">
<g clip-path="url(#clip0_6001_6536)">
<path d="M23.9655 31H5.03453C2.25256 31 0 28.7543 0 24.6456V7.4722C0 6.04556 2.25593 3.80322 5.03453 3.80322H23.9655C26.7474 3.80322 29 6.04892 29 7.4722V24.6456C29 28.7576 26.7441 31 23.9655 31Z" fill="#D8E2FF"/>
<path d="M5.03453 3.80322H23.9655C26.7441 3.80322 29 6.04892 29 8.81492V11.9502H0V8.81492C0 6.04892 2.25593 3.80322 5.03453 3.80322Z" fill="#4C6AFF"/>
<path d="M6.19801 7.7542C5.26731 7.7542 4.51196 7.00227 4.51196 6.0758V1.6784C4.51196 0.751922 5.26731 0 6.19801 0C7.12871 0 7.88406 0.751922 7.88406 1.6784V6.0758C7.88406 7.00227 7.12871 7.7542 6.19801 7.7542Z" fill="#4C6AFF"/>
<path d="M22.8023 7.7542C21.8716 7.7542 21.1162 7.00227 21.1162 6.0758V1.6784C21.1162 0.751922 21.8716 0 22.8023 0C23.733 0 24.4883 0.751922 24.4883 1.6784V6.0758C24.4883 7.00227 23.733 7.7542 22.8023 7.7542Z" fill="#4C6AFF"/>
<path d="M12.3722 26.0152H7.26686C6.33616 26.0152 5.58081 25.2633 5.58081 24.3368C5.58081 23.4104 6.33616 22.6584 7.26686 22.6584H12.3722C13.3029 22.6584 14.0583 23.4104 14.0583 24.3368C14.0583 25.2633 13.3029 26.0152 12.3722 26.0152Z" fill="#6C93FF"/>
<path d="M21.8175 20.067H7.18263C6.25193 20.067 5.49658 19.3151 5.49658 18.3886C5.49658 17.4621 6.25193 16.7102 7.18263 16.7102H21.8175C22.7482 16.7102 23.5036 17.4621 23.5036 18.3886C23.5036 19.3151 22.7482 20.067 21.8175 20.067Z" fill="#6C93FF"/>
</g>
<defs>
<clipPath id="clip0_6001_6536">
<rect width="29" height="31" fill="white"/>
</clipPath>
</defs>
</svg>
