<svg width="35" height="29" viewBox="0 0 35 29" fill="none" xmlns="http://www.w3.org/2000/svg">
<g clip-path="url(#clip0_6001_6551)">
<path d="M30.9007 0H4.09926C1.8353 0 0 1.83717 0 4.10343V24.8966C0 27.1628 1.8353 29 4.09926 29H30.9007C33.1647 29 35 27.1628 35 24.8966V4.10343C35 1.83717 33.1647 0 30.9007 0Z" fill="#D8E2FF"/>
<path d="M17.2317 21.8934H5.87875C5.48904 21.8934 5.16919 21.496 5.16919 21.0102V18.7542C5.16919 18.4893 5.26478 18.2353 5.43022 18.0697C5.52581 17.9703 7.84566 15.6592 11.5552 15.6592C15.2648 15.6592 17.581 17.9703 17.6802 18.0697C17.8457 18.239 17.9412 18.4893 17.9412 18.7542V21.0102C17.9412 21.4997 17.6251 21.8934 17.2317 21.8934Z" fill="#4C6AFF"/>
<path d="M11.5551 15.6592C13.6912 15.6592 15.4228 13.9258 15.4228 11.7876C15.4228 9.64938 13.6912 7.91602 11.5551 7.91602C9.4191 7.91602 7.6875 9.64938 7.6875 11.7876C7.6875 13.9258 9.4191 15.6592 11.5551 15.6592Z" fill="#4C6AFF"/>
<path d="M28.1067 11.6956H22.0699C21.0552 11.6956 20.2317 10.8712 20.2317 9.85548C20.2317 8.83975 21.0552 8.01538 22.0699 8.01538H28.1067C29.1214 8.01538 29.9449 8.83975 29.9449 9.85548C29.9449 10.8712 29.1214 11.6956 28.1067 11.6956Z" fill="#4C6AFF"/>
<path d="M28.1067 16.7449H22.0699C21.0552 16.7449 20.2317 15.9205 20.2317 14.9048C20.2317 13.8891 21.0552 13.0647 22.0699 13.0647H28.1067C29.1214 13.0647 29.9449 13.8891 29.9449 14.9048C29.9449 15.9205 29.1214 16.7449 28.1067 16.7449Z" fill="#4C6AFF"/>
<path d="M28.1067 21.794H22.0699C21.0552 21.794 20.2317 20.9696 20.2317 19.9539C20.2317 18.9381 21.0552 18.1138 22.0699 18.1138H28.1067C29.1214 18.1138 29.9449 18.9381 29.9449 19.9539C29.9449 20.9696 29.1214 21.794 28.1067 21.794Z" fill="#4C6AFF"/>
</g>
<defs>
<clipPath id="clip0_6001_6551">
<rect width="35" height="29" fill="white"/>
</clipPath>
</defs>
</svg>
