<svg width="29" height="27" viewBox="0 0 29 27" fill="none" xmlns="http://www.w3.org/2000/svg">
<g clip-path="url(#clip0_6001_6561)">
<path d="M16.2458 2.97144L25.0096 11.3713L9.83401 25.9198L3.23592 26.9062C1.36384 27.1846 -0.24938 25.6384 0.0442185 23.847L1.07339 17.5229L16.2458 2.97144Z" fill="#D8E2FF"/>
<path d="M7.12842 26.3222L0.647149 20.113L0.0346956 23.8954C-0.252589 25.6625 1.33853 27.1876 3.1822 26.9122L7.12842 26.3222Z" fill="#4C6AFF"/>
<path d="M25.01 11.3733L16.2459 2.97312L18.4403 0.869867C19.6502 -0.28981 21.6147 -0.28981 22.8246 0.869867L27.2044 5.06781C28.4143 6.22749 28.4143 8.11036 27.2044 9.27004L25.01 11.3733Z" fill="#4C6AFF"/>
<path d="M27.4215 27H17.0919C16.2206 27 15.5134 26.3222 15.5134 25.4871C15.5134 24.6519 16.2206 23.9741 17.0919 23.9741H27.4184C28.2897 23.9741 28.9969 24.6519 28.9969 25.4871C28.9969 26.3222 28.2897 27 27.4184 27H27.4215Z" fill="#4C6AFF"/>
</g>
<defs>
<clipPath id="clip0_6001_6561">
<rect width="29" height="27" fill="white"/>
</clipPath>
</defs>
</svg>
