<svg width="23" height="23" viewBox="0 0 23 23" fill="none" xmlns="http://www.w3.org/2000/svg">
<path d="M5.76351 1.87183C3.64655 1.87183 1.93018 3.5881 1.93018 5.70516V13.3718C1.93018 15.4888 3.64655 17.2052 5.76351 17.2052L5.7731 17.2099C5.99544 19.3461 7.822 21.0385 10.0166 21.0385C10.3242 21.0385 12.7766 21.0385 13.4302 21.0385C16.8342 21.0385 21.0968 16.7758 21.0968 13.3718C21.0968 12.7182 21.0968 10.4326 21.0968 9.95824C21.0968 7.76337 19.4054 5.92969 17.2693 5.70726L17.2635 5.70516C17.2635 3.5881 15.5471 1.87183 13.4302 1.87183H5.76351ZM5.76351 3.78849H13.4302C14.4891 3.78849 15.3468 4.64658 15.3468 5.70516H10.0166C7.6725 5.70516 5.76351 7.61387 5.76351 9.95824V15.2885C4.70455 15.2885 3.84684 14.4308 3.84684 13.3718V5.70516C3.84684 4.64658 4.70455 3.78849 5.76351 3.78849ZM10.0166 7.62182H16.3052H16.8438C18.1299 7.62182 19.1802 8.67245 19.1802 9.95824C19.1802 10.2994 19.1802 11.4791 19.1802 12.4135C18.2535 12.4135 17.0316 12.4135 16.7249 12.4135C14.3808 12.4135 12.4718 14.3225 12.4718 16.6666V19.1218C11.4991 19.1218 10.238 19.1218 10.0166 19.1218C8.7305 19.1218 7.68018 18.0715 7.68018 16.7854V16.2468V9.95824C7.68018 8.67235 8.7305 7.62182 10.0166 7.62182ZM16.7249 14.3302C16.9942 14.3302 18.1117 14.3282 19.0086 14.3282C18.4154 16.2229 16.3023 18.3053 14.3952 18.9589L14.3885 16.6666C14.3885 15.3805 15.4388 14.3302 16.7249 14.3302Z" fill="#4C6AFF"/>
</svg>
