<svg xmlns="http://www.w3.org/2000/svg" width="22" height="22" viewBox="0 0 22 22" fill="none">
  <path d="M8.26296 1.79053C8.50606 1.79053 8.75604 1.91749 8.93158 2.08551C10.3511 3.44474 10.7858 4.58141 10.2668 6.13846C11.4778 7.06668 12.2427 7.29447 13.7544 7.29447C15.8211 7.29447 17.1704 7.54362 18.0885 8.46111V8.48971C18.9476 9.34844 18.9476 10.7234 18.0885 11.5814L15.5217 14.1683L19.8952 18.5399C20.2531 18.8974 20.2798 19.4978 19.9219 19.8553C19.5638 20.2137 18.9621 20.2137 18.6041 19.8553L14.2143 15.4644L11.6432 18.0229C10.784 18.8818 9.40861 18.8818 8.54942 18.0229H8.52073C7.60223 17.1053 7.3463 15.9292 7.3463 13.6999C7.3463 12.2827 7.05544 11.2826 6.1748 10.2303C4.47997 10.7271 3.49391 10.2514 2.10406 8.86197C1.93218 8.6901 1.84629 8.44645 1.84629 8.20344C1.84629 7.88105 1.92769 7.38687 2.13275 6.77197C2.46303 5.78188 3.03163 4.78574 3.93739 3.88044C4.84324 2.97523 5.84003 2.4069 6.83067 2.0768C7.44594 1.87184 7.94039 1.79053 8.26296 1.79053Z" fill="#2A343D"/>
</svg>