<svg xmlns="http://www.w3.org/2000/svg" width="38" height="38" viewBox="0 0 38 38" fill="none">
  <g clip-path="url(#clip0_6003_10039)">
    <path d="M19 38C29.4934 38 38 29.4934 38 19C38 8.50659 29.4934 0 19 0C8.50659 0 0 8.50659 0 19C0 29.4934 8.50659 38 19 38Z" fill="#4C6AFF" fill-opacity="0.1"/>
    <path d="M17.307 26.3981C17.307 26.3981 17.2817 26.3981 17.2732 26.3981C16.7919 26.3896 16.3359 26.1743 16.0234 25.807L10.7161 19.5918C10.1123 18.8825 10.1925 17.8185 10.9019 17.2105C11.6112 16.6025 12.6752 16.687 13.2832 17.3963L17.3619 22.1674L26.0554 12.811C26.6888 12.127 27.757 12.089 28.441 12.7223C29.125 13.3556 29.163 14.4238 28.5297 15.1078L18.5441 25.8534C18.2232 26.1996 17.7757 26.3938 17.307 26.3938V26.3981Z" fill="#4C6AFF"/>
  </g>
  <defs>
    <clipPath id="clip0_6003_10039">
      <rect width="38" height="38" fill="white"/>
    </clipPath>
  </defs>
</svg>