<svg xmlns="http://www.w3.org/2000/svg" width="179" height="41" viewBox="0 0 179 41" fill="none">
  <g clip-path="url(#clip0_197_3346)">
    <path d="M6.36659 40.9615V20.2687H0V13.5575H6.36659V9.10263C6.36659 3.58711 8.34043 0.829346 14.1071 0.829346H24.1118V7.34769H16.7776C14.9779 7.34769 14.2813 8.21552 14.2813 9.9126V13.5382H24.1892V20.2494H14.3006V40.9422H6.36659V40.9615Z" fill="#191F28"/>
    <path d="M28.5045 0H37.0385V8.40828H28.5045V0ZM36.8062 13.0945V40.9421H28.7367V13.0945H36.8062Z" fill="#191F28"/>
    <path d="M40.6378 13.5574H46.9077V3.68347H54.8417V13.5574H67.2072V20.2686H54.8417V31.6661C54.8417 33.4596 55.4803 34.231 57.338 34.231H64.44V40.9422H55.3448C48.7073 40.9422 46.9077 37.9916 46.9077 31.9361V20.2686H40.6378V13.5574Z" fill="#4C6AFF"/>
    <path d="M67.2266 13.5574H73.4964V3.68347H81.4305V13.5574H89.0936V20.2686H81.4305V31.6661C81.4305 33.4596 82.069 34.231 83.9268 34.231H91.0287V40.9422H81.9336C75.2961 40.9422 73.4964 37.9916 73.4964 31.9361V20.2686H67.2266V13.5574Z" fill="#4C6AFF"/>
    <path d="M114.695 40.9615V23.8942C114.695 21.0979 113.496 19.8444 110.535 19.8444H103.065V40.9422H95.0925V13.0946H113.496C119.824 13.0946 122.63 16.3538 122.63 22.4671V40.9422H114.695V40.9615Z" fill="#191F28"/>
    <path d="M126.558 21.8886C126.558 15.7752 128.628 13.1139 134.763 13.1139H146.393C152.527 13.1139 154.559 15.4667 154.791 21.1172V24.2414C154.791 28.3876 152.489 30.4511 147.825 30.4511H134.55V32.8811C134.55 34.0382 134.782 34.8096 135.653 35.176H153.882V40.9615H133.486C128.687 40.9615 126.558 38.5701 126.558 35.041V21.8886ZM137.53 19.1308C135.537 19.1308 134.531 19.3237 134.531 21.2907V24.4149H144.671C146.277 24.4149 146.838 23.8171 146.838 22.2936V21.2907C146.838 19.6901 146.277 19.1308 144.671 19.1308H137.53Z" fill="#191F28"/>
    <path d="M158.7 41.0001V20.8665C158.7 15.5824 160.965 13.0946 166.499 13.0946H179V19.8444H169.17C167.331 19.8444 166.673 20.6351 166.673 22.4093V40.9808H158.7V41.0001Z" fill="#191F28"/>
  </g>
  <defs>
    <clipPath id="clip0_197_3346">
      <rect width="179" height="41" fill="white"/>
    </clipPath>
  </defs>
</svg>